<svg width="27" height="27" viewBox="0 0 27 27" fill="none" xmlns="http://www.w3.org/2000/svg">
<path d="M26.4195 5.5026C25.9686 4.9167 25.1505 4.833 24.3594 4.833H5.27042L5.00852 2.9133C4.86002 1.7712 4.30112 1.6281 3.04562 1.6281H1.02062C0.423919 1.62 0.27002 2.2275 0.27002 2.5569C0.27002 2.889 0.51032 3.3966 1.08812 3.3939H2.15192C2.93492 3.402 3.22922 3.8556 3.34262 4.4172L5.56472 19.1889C5.71592 20.358 6.71762 21.087 7.94612 21.087H23.166C23.6574 21.087 24.057 20.8656 24.0516 20.2743C24.0462 19.71 23.6763 19.3914 23.166 19.3914H8.34842C7.72202 19.3914 7.31432 19.0134 7.23872 18.441L7.04162 17.1774H21.7242C22.842 17.1774 23.7762 16.5645 24.0462 15.5439L26.6301 7.209C26.8164 6.5124 26.7381 5.94 26.4195 5.5026ZM24.5808 8.073L22.518 14.7663C22.3857 15.2631 21.9294 15.4764 21.3543 15.4764H6.75272L5.53232 6.5556H23.4171C23.8329 6.5556 24.4458 6.588 24.6672 6.8769C24.8616 7.1307 24.6699 7.7382 24.5808 8.073ZM10.7973 23.6466C10.7973 24.5997 10.0251 25.3719 9.07202 25.3719C8.11892 25.3719 7.34672 24.5997 7.34672 23.6466C7.34672 22.6935 8.11892 21.9213 9.07202 21.9213C10.0251 21.9213 10.7973 22.6935 10.7973 23.6466ZM21.7485 23.6466C21.7485 24.5997 20.9763 25.3719 20.0232 25.3719C19.0701 25.3719 18.2979 24.5997 18.2979 23.6466C18.2979 22.6935 19.0701 21.9213 20.0232 21.9213C20.9763 21.9213 21.7485 22.6935 21.7485 23.6466Z" fill="white"/>
</svg>
