<svg width="22" height="18" viewBox="0 0 22 18" fill="none" xmlns="http://www.w3.org/2000/svg">
<path d="M10.9342 7.83884C9.38533 7.83884 8.12549 9.09868 8.12549 10.6476C8.12549 12.1964 9.38533 13.4563 10.9342 13.4563C12.4831 13.4563 13.7429 12.1964 13.7429 10.6476C13.7429 9.10089 12.4831 7.83884 10.9342 7.83884Z" fill="white"/>
<path d="M18.961 3.73497H15.7176C15.7176 2.18168 14.46 0.924042 12.9067 0.924042H9.01464C7.46135 0.924042 6.20371 2.18168 6.20371 3.73497H2.96034C1.40705 3.73497 0.149414 4.9926 0.149414 6.54589V14.7624C0.149414 16.3157 1.40705 17.5734 2.96034 17.5734H18.961C20.5143 17.5734 21.7719 16.3157 21.7719 14.7624V6.54589C21.7719 4.9926 20.5143 3.73497 18.961 3.73497ZM10.9607 15.6273C8.21814 15.6273 5.98749 13.3967 5.98749 10.6542C5.98749 7.91164 8.21814 5.68099 10.9607 5.68099C13.7032 5.68099 15.9338 7.91164 15.9338 10.6542C15.9338 13.3967 13.7032 15.6273 10.9607 15.6273Z" fill="white"/>
</svg>
