<svg width="21" height="25" viewBox="0 0 21 25" fill="none" xmlns="http://www.w3.org/2000/svg">
<path d="M17.6294 17.5V17.8697L17.8893 18.1326L20.0806 20.35H0.919445L3.11074 18.1326L3.37059 17.8697V17.5V10.625C3.37059 7.20749 5.71269 4.35403 8.85689 3.6002L9.54706 3.43473V2.725V1.875C9.54706 1.32449 9.98177 0.9 10.5 0.9C11.0182 0.9 11.4529 1.32449 11.4529 1.875V2.725V3.43473L12.1431 3.6002C15.2873 4.35403 17.6294 7.20749 17.6294 10.625V17.5ZM11.7959 23.4C11.5101 23.8234 11.0309 24.1 10.5 24.1C9.96912 24.1 9.48987 23.8234 9.20413 23.4H11.7959Z" stroke="white" stroke-width="1.8"/>
</svg>
