<svg xmlns="http://www.w3.org/2000/svg" version="1.1" xmlns:xlink="http://www.w3.org/1999/xlink" xmlns:svgjs="http://svgjs.com/svgjs" width="512" height="512" x="0" y="0" viewBox="0 0 32 32" style="enable-background:new 0 0 512 512" xml:space="preserve" class=""><g><path d="m21.1689453 19.9853516c-1.2363281-.3955078-2.5878906.2265625-3.0849609 1.4111328-.0292969.0683594-.0566406.1376953-.0830078.2070312-1.5664062-.6757812-2.9912109-1.6181641-4.2441406-2.8085938-.0019531-.0009766-.0029297-.0029297-.0048828-.0039062-.1865234-.1757812-.3671875-.3564453-.5429688-.5429688-.0009766-.0019531-.0029297-.0029297-.0039062-.0048828-1.1904297-1.2529297-2.1328125-2.6777344-2.8085938-4.2441406.0693359-.0263672.1386719-.0537109.2080078-.0830078 1.1845703-.4980469 1.8046875-1.8525391 1.4101562-3.0859375-2.8310546-8.8300781-2.9052734-8.8300781-3.8154296-8.8300781-3.4179688 0-6.1992188 2.78125-6.1992188 6.1992188 0 12.0205078 9.7802734 21.8007812 21.8007812 21.8007812 3.4179688 0 6.1992188-2.78125 6.1992188-6.1992188 0-.9101562 0-.984375-8.8310547-3.8154296zm2.6318359 8.0146484c-10.9179687 0-19.8007812-8.8828125-19.8007812-19.8007812 0-2.1142578 1.5712891-3.8691406 3.6064453-4.1572266.3662109.9267578 1.1611328 3.2119141 2.5039062 7.3984375.0810547.2539062-.0419922.53125-.2802734.6318359-.2998047.125-.6123047.2158203-.9306641.2685547-.2910156.0478516-.5458984.2216797-.696289.4755859-.1513672.2529297-.1816406.5605469-.0849609.8388672.7763672 2.2353516 2 4.2421875 3.6367188 5.9648438.2021484.2148438.4101562.4228516.625.625 1.7226562 1.6367188 3.7294922 2.8603516 5.9648438 3.6367188.2783203.0976562.5859375.0654297.8388672-.0849609.2538986-.1503906.4277344-.4052734.4755859-.6962891.0527344-.3183594.1435547-.6308594.2685547-.9296875.1005859-.2392578.3769531-.3603516.6308594-.28125 4.1865234 1.3427734 6.4726562 2.1376953 7.3994141 2.5039062-.2880861 2.0351562-2.0429689 3.6064453-4.1572268 3.6064453z" fill="#000000" data-original="#000000"></path><path d="m17.7353516 7c4.0058593 0 7.2646484 3.2587891 7.2646484 7.2646484 0 .5527344.4472656 1 1 1s1-.4472656 1-1c0-5.1083984-4.15625-9.2646484-9.2646484-9.2646484-.5527344 0-1 .4472656-1 1s.4472656 1 1 1z" fill="#000000" data-original="#000000"></path><path d="m16 11.4902344c2.4863281 0 4.5097656 2.0234375 4.5097656 4.5097656 0 .5527344.4472656 1 1 1 .5527267 0 1-.4472656 1-1 0-3.5898438-2.9199219-6.5097656-6.5097656-6.5097656-.5527344 0-1 .4472656-1 1s.4472656 1 1 1z" fill="#000000" data-original="#000000"></path></g></svg>