<svg width="8" height="8" viewBox="0 0 8 8" fill="none" xmlns="http://www.w3.org/2000/svg">
<g clip-path="url(#clip0_5_103)">
<path d="M8.07929 1.67095C8.3069 1.9078 8.3069 2.28785 8.07931 2.52471C8.0793 2.52471 8.0793 2.52472 8.07929 2.52472L4.44746 6.30479L4.43189 6.32233L4.4253 6.32976L4.42516 6.32962C4.31885 6.44024 4.17969 6.50164 4.03675 6.51038L4.02913 6.51085L4.02149 6.51085L3.97851 6.51085L3.97087 6.51085L3.96325 6.51038C3.82031 6.50164 3.68115 6.44024 3.57484 6.32962L3.56803 6.32254L3.5618 6.31493L3.55277 6.30392L-0.0792799 2.52473L-0.0792885 2.52472C-0.306901 2.28787 -0.306901 1.90781 -0.0792885 1.67095C0.153709 1.42849 0.535753 1.42849 0.768751 1.67095L0.768812 1.67101L3.97964 5.01461L7.23125 1.67095C7.23144 1.67075 7.23164 1.67055 7.23183 1.67035C7.46488 1.42849 7.84648 1.42869 8.07929 1.67095ZM8.07929 1.67095L7.89903 1.84417L8.07929 1.67095Z" fill="black" stroke="black" stroke-width="0.5"/>
</g>
<defs>
<clipPath id="clip0_5_103">
<rect width="8" height="8" fill="white" transform="matrix(1.19249e-08 -1 -1 -1.19249e-08 8 8)"/>
</clipPath>
</defs>
</svg>
