<svg width="11" height="11" viewBox="0 0 11 11" fill="none" xmlns="http://www.w3.org/2000/svg">
<g clip-path="url(#clip0_4_202)">
<path d="M2.22411 -0.0489997C1.93982 0.224197 1.93962 0.671293 2.22352 0.94473C2.22372 0.944919 2.22391 0.945108 2.22411 0.945296L6.62682 5.2268L2.22417 9.45464L2.22411 9.4547C1.93962 9.72809 1.93962 10.1756 2.22411 10.449L2.39679 10.2693L2.22411 10.449C2.50299 10.717 2.95119 10.717 3.23008 10.449L3.23009 10.449L8.14516 5.72528L8.16176 5.71167L8.16936 5.70544L8.17645 5.69863C8.30647 5.57368 8.37831 5.41053 8.38854 5.24319L8.38901 5.23557L8.38901 5.22793L8.38901 5.17206L8.38901 5.16443L8.38854 5.1568C8.37831 4.98946 8.30647 4.82632 8.17645 4.70137L8.17659 4.70123L8.16916 4.69464L8.14523 4.6734L3.23008 -0.0489996C3.23007 -0.0490053 3.23007 -0.0490109 3.23006 -0.0490165C2.95118 -0.317 2.50299 -0.316995 2.22411 -0.0489997ZM2.22411 -0.0489997L2.39733 0.13126L2.22411 -0.0489997Z" fill="#2D50FE" stroke="#2D50FE" stroke-width="0.5"/>
</g>
<defs>
<clipPath id="clip0_4_202">
<rect width="10.4" height="10.4" fill="white" transform="matrix(-1 8.74228e-08 8.74228e-08 1 10.3999 0)"/>
</clipPath>
</defs>
</svg>
