<?xml version="1.0" encoding="utf-8"?><svg xmlns="http://www.w3.org/2000/svg" xmlns:xlink="http://www.w3.org/1999/xlink"><symbol viewBox="0 0 27 27" id="basket" xmlns="http://www.w3.org/2000/svg">
    <path d="M26.42 5.503c-.451-.586-1.27-.67-2.06-.67H5.27l-.261-1.92C4.86 1.771 4.3 1.628 3.046 1.628H1.02c-.597-.008-.751.6-.751.929 0 .332.24.84.818.837h1.064c.783.008 1.077.462 1.19 1.023L5.566 19.19c.15 1.169 1.153 1.898 2.381 1.898h15.22c.491 0 .891-.221.886-.813-.006-.564-.376-.883-.886-.883H8.348c-.626 0-1.034-.378-1.11-.95l-.196-1.264h14.682c1.118 0 2.052-.613 2.322-1.633l2.584-8.335c.186-.697.108-1.269-.21-1.706Zm-1.84 2.57-2.062 6.693c-.132.497-.589.71-1.164.71H6.753l-1.22-8.92h17.884c.416 0 1.029.032 1.25.32.195.255.003.862-.086 1.197ZM10.798 23.647a1.725 1.725 0 1 1-3.45 0 1.725 1.725 0 0 1 3.45 0Zm10.951 0a1.725 1.725 0 1 1-3.45 0 1.725 1.725 0 0 1 3.45 0Z"/>
</symbol><symbol xml:space="preserve" viewBox="0 0 512 512" id="email" xmlns="http://www.w3.org/2000/svg">
    <path d="M467 80.609H45c-24.813 0-45 20.187-45 45v260.782c0 24.813 20.187 45 45 45h422c24.813 0 45-20.187 45-45V125.609c0-24.813-20.187-45-45-45zm-5.873 30-6.006 5.001-181.267 150.941c-10.346 8.614-25.364 8.614-35.708 0L56.879 115.61l-6.006-5.001h410.254zM30 132.267 177.692 255.25 30 353.543V132.267zm437 269.124H45c-7.248 0-13.31-5.168-14.699-12.011l171.445-114.101 17.204 14.326a57.79 57.79 0 0 0 37.051 13.407 57.793 57.793 0 0 0 37.051-13.407l17.204-14.326 171.444 114.1c-1.39 6.845-7.452 12.012-14.7 12.012zm15-47.848-147.692-98.292L482 132.267v221.276z" data-original="#000000"/>
</symbol><symbol viewBox="0 0 22 18" id="foto" xmlns="http://www.w3.org/2000/svg">
    <path d="M10.934 7.839a2.812 2.812 0 0 0-2.809 2.809 2.812 2.812 0 0 0 2.81 2.808 2.812 2.812 0 0 0 2.808-2.808 2.813 2.813 0 0 0-2.809-2.81Z"/>
    <path d="M18.961 3.735h-3.243A2.81 2.81 0 0 0 12.907.924H9.015a2.81 2.81 0 0 0-2.811 2.811H2.96a2.81 2.81 0 0 0-2.81 2.81v8.217a2.81 2.81 0 0 0 2.81 2.811h16.001a2.81 2.81 0 0 0 2.81-2.81V6.545a2.81 2.81 0 0 0-2.81-2.811Zm-8 11.892a4.978 4.978 0 0 1-4.974-4.973 4.978 4.978 0 0 1 4.974-4.973 4.978 4.978 0 0 1 4.973 4.973 4.978 4.978 0 0 1-4.973 4.973Z"/>
</symbol><symbol viewBox="0 0 21 25" id="notification" xmlns="http://www.w3.org/2000/svg">
    <path d="M17.63 17.5v.37l.26.263 2.19 2.217H.92l2.19-2.217.26-.263v-7.245c0-3.418 2.343-6.271 5.487-7.025l.69-.165v-1.56c0-.55.435-.975.953-.975s.953.424.953.975v1.56l.69.165c3.144.754 5.486 3.607 5.486 7.025V17.5Zm-5.834 5.9a1.57 1.57 0 0 1-1.296.7 1.57 1.57 0 0 1-1.296-.7h2.592Z" stroke-width="1.8"/>
</symbol><symbol viewBox="0 0 32 32" xml:space="preserve" id="tel" xmlns="http://www.w3.org/2000/svg">
    <path d="M21.169 19.985c-1.236-.395-2.588.227-3.085 1.411a5.38 5.38 0 0 0-.083.208 14.45 14.45 0 0 1-4.244-2.81c-.002 0-.003-.002-.005-.003a12.94 12.94 0 0 1-.543-.543l-.004-.005A14.45 14.45 0 0 1 10.396 14c.07-.026.14-.054.208-.083 1.185-.498 1.805-1.853 1.41-3.086C9.185 2 9.11 2 8.2 2A6.207 6.207 0 0 0 2 8.2C2 20.22 11.78 30 23.8 30c3.419 0 6.2-2.781 6.2-6.2 0-.91 0-.984-8.831-3.815zM23.8 28C12.883 28 4 19.117 4 8.2a4.205 4.205 0 0 1 3.606-4.158c.367.927 1.162 3.212 2.504 7.398a.516.516 0 0 1-.28.632c-.3.125-.612.216-.93.269a.997.997 0 0 0-.782 1.314c.777 2.236 2 4.242 3.637 5.965.202.215.41.423.625.625a16.432 16.432 0 0 0 5.965 3.637.997.997 0 0 0 1.314-.781c.053-.319.144-.631.269-.93.1-.24.377-.36.63-.281 4.187 1.342 6.473 2.137 7.4 2.504A4.205 4.205 0 0 1 23.801 28zM17.735 7C21.741 7 25 10.259 25 14.265a1 1 0 1 0 2 0C27 9.156 22.844 5 17.735 5a1 1 0 1 0 0 2z" data-original="#000000"/>
    <path d="M16 11.49A4.515 4.515 0 0 1 20.51 16a1 1 0 1 0 2 0c0-3.59-2.92-6.51-6.51-6.51a1 1 0 1 0 0 2z" data-original="#000000"/>
</symbol></svg>